<?xml version="1.0" encoding="UTF-8"?>
<!DOCTYPE svg PUBLIC "-//W3C//DTD SVG 1.1//EN" "http://www.w3.org/Graphics/SVG/1.1/DTD/svg11.dtd">
<!-- Creator: CorelDRAW 2018 -->
<svg xmlns="http://www.w3.org/2000/svg" xml:space="preserve" width="11.6929in" height="8.26772in" version="1.1" style="shape-rendering:geometricPrecision; text-rendering:geometricPrecision; image-rendering:optimizeQuality; fill-rule:evenodd; clip-rule:evenodd"
viewBox="0 0 11692.91 8267.72"
 xmlns:xlink="http://www.w3.org/1999/xlink">
 <defs>
  <style type="text/css">
   <![CDATA[
    .fil0 {fill:none}
    .fil1 {fill:#E3003C}
    .fil3 {fill:white}
    .fil2 {fill:white;fill-rule:nonzero}
   ]]>
  </style>
 </defs>
 <g id="Layer_x0020_1">
  <metadata id="CorelCorpID_0Corel-Layer"/>
  <rect class="fil0" width="11692.91" height="8267.72"/>
  <g id="_1470678776">
   <rect class="fil1" x="613.81" y="1913.52" width="10465.28" height="4440.66" rx="1435.85" ry="1377.47"/>
   <g>
    <path class="fil2" d="M4488.63 3905.37c-93.7,0 -176,-19.06 -246.9,-57.2 -70.88,-38.15 -125.62,-91.63 -164.18,-160.45 -38.56,-68.83 -57.84,-148.02 -57.84,-237.57 0,-89.55 19.7,-168.95 59.09,-238.18 39.37,-69.24 94.31,-122.72 164.8,-160.45 70.48,-37.73 150.91,-56.59 241.29,-56.59 128.54,0 238.81,45.2 330.85,135.57l-125.62 125.63c-55.56,-53.07 -122.3,-79.6 -200.25,-79.6 -52.23,0 -98.46,11.4 -138.68,34.19 -40.23,22.82 -71.32,54.94 -93.28,96.4 -21.98,41.46 -32.97,89.14 -32.97,143.03 0,53.91 10.99,101.58 32.97,143.04 21.96,41.46 53.06,73.59 93.28,96.39 40.22,22.82 86.45,34.21 138.68,34.21 41.46,0 81.27,-7.47 119.41,-22.38 38.13,-14.93 71.32,-36.49 99.51,-64.67l119.39 133.07c-93.7,90.38 -206.88,135.57 -339.55,135.57zm435.31 -890.54l195.28 0 0 870.65 -195.28 0 0 -870.65zm986.31 256.22l0 614.43 -169.16 0 -12.43 -73.38c-52.24,57.2 -120.24,85.8 -203.98,85.8 -57.22,0 -108.01,-13.46 -152.36,-40.43 -44.37,-26.94 -78.98,-64.67 -103.87,-113.17 -24.87,-48.51 -37.3,-103.86 -37.3,-166.05 0,-62.18 12.43,-117.53 37.3,-166.04 24.88,-48.51 59.49,-86.24 103.87,-113.19 44.35,-26.96 95.14,-40.43 152.36,-40.43 41.45,0 79.59,7.26 114.43,21.78 34.82,14.51 64.67,35.44 89.56,62.8l12.43 -72.13 169.16 0zm-339.55 462.69c43.11,0 78.35,-14.31 105.72,-42.91 27.36,-28.61 41.05,-66.13 41.05,-112.57 0,-46.43 -13.69,-83.94 -41.05,-112.56 -27.37,-28.62 -62.61,-42.93 -105.72,-42.93 -43.12,0 -78.16,14.53 -105.11,43.54 -26.94,29.03 -40.42,66.34 -40.42,111.95 0,45.6 13.47,82.91 40.42,111.94 26.95,29.03 61.98,43.54 105.11,43.54zm584.57 -523.63c-33.99,0 -61.56,-9.94 -82.71,-29.85 -21.14,-19.89 -31.72,-45.19 -31.72,-75.87 0,-31.52 10.79,-57.22 32.35,-77.12 21.56,-19.89 48.93,-29.84 82.08,-29.84 33.17,0 60.54,9.95 82.1,29.84 21.56,19.9 32.33,45.6 32.33,77.12 0,30.68 -10.57,55.98 -31.7,75.87 -21.16,19.9 -48.73,29.85 -82.73,29.85zm-98.26 60.95l195.28 0 0 614.43 -195.28 0 0 -614.43zm1090.79 -13.69c77.95,0 139.3,22.8 184.08,68.4 44.78,45.62 67.17,108.2 67.17,187.83l0 371.88 -195.27 0 0 -347.02c0,-36.48 -8.51,-64.88 -25.49,-85.2 -17,-20.32 -40.85,-30.48 -71.53,-30.48 -33.99,0 -60.94,11.62 -80.83,34.84 -19.92,23.23 -29.87,53.91 -29.87,92.05l0 335.82 -194.03 0 0 -347.02c0,-36.48 -8.28,-64.88 -24.87,-85.2 -16.59,-20.32 -40.22,-30.48 -70.9,-30.48 -33.99,0 -61.16,11.62 -81.46,34.84 -20.33,23.23 -30.48,53.91 -30.48,92.05l0 335.82 -195.28 0 0 -614.43 169.16 0 11.19 68.4c21.56,-26.53 47.47,-46.86 77.74,-60.95 30.25,-14.1 62.81,-21.14 97.64,-21.14 39.8,0 75.44,8.49 106.96,25.49 31.5,17.01 56.37,40.42 74.61,70.28 49.76,-63.85 120.24,-95.77 211.45,-95.77zm961.44 -242.54l0 177.87 -266.16 0 0 692.78 -203.99 0 0 -692.78 -264.93 0 0 -177.87 735.07 0zm277.36 242.54c67.16,0 125.21,12.65 174.12,37.92 48.92,25.3 86.45,60.94 112.57,106.98 26.13,46.02 39.19,99.7 39.19,161.07 0,19.9 -2.08,44.35 -6.21,73.39l-451.5 0c5.81,31.51 22.79,56.99 50.99,76.48 28.19,19.49 64.26,29.24 108.21,29.24 30.68,0 60.53,-4.56 89.55,-13.69 29.03,-9.13 53.91,-21.99 74.64,-38.56l101.98 109.45c-34.82,32.35 -76.07,57.23 -123.76,74.63 -47.67,17.41 -98.46,26.11 -152.36,26.11 -71.3,0 -133.07,-13.06 -185.32,-39.16 -52.25,-26.12 -92.44,-63.23 -120.64,-111.33 -28.2,-48.07 -42.29,-104.87 -42.29,-170.39 0,-63.02 13.89,-118.98 41.67,-167.91 27.77,-48.92 66.55,-86.84 116.29,-113.8 49.75,-26.94 107.37,-40.42 172.89,-40.42zm6.21 154.22c-38.96,0 -70.68,9.95 -95.14,29.85 -24.47,19.9 -38.35,47.69 -41.67,83.33l271.14 0c-2.47,-35.65 -15.54,-63.43 -39.17,-83.33 -23.64,-19.9 -55.33,-29.85 -95.16,-29.85zm732.59 487.57c-68.83,0 -128.72,-13.06 -179.73,-39.19 -50.99,-26.11 -90.39,-63.22 -118.16,-111.3 -27.78,-48.1 -41.66,-104.48 -41.66,-169.16 0,-63.86 14.09,-120.02 42.28,-168.53 28.2,-48.52 67.57,-86.22 118.16,-113.19 50.58,-26.94 109.04,-40.42 175.38,-40.42 45.6,0 89.14,8.08 130.6,24.24 41.46,16.19 78.36,40.02 110.69,71.53l-108.2 118.16c-34.83,-32.34 -75.89,-48.52 -123.13,-48.52 -44.79,0 -81.26,14.31 -109.46,42.93 -28.18,28.61 -42.28,66.13 -42.28,112.56 0,46.44 13.88,83.96 41.67,112.57 27.78,28.6 64.48,42.91 110.07,42.91 50.57,0 93.69,-17.84 129.35,-53.48l110.69 116.9c-68.82,68 -150.91,102 -246.26,102zm722.63 -641.79c75.47,0 135.38,25.3 179.73,75.86 44.37,50.59 66.54,119.01 66.54,205.23l0 347.02 -195.26 0 0 -335.82c0,-39.79 -9.76,-70.9 -29.23,-93.3 -19.49,-22.38 -46.65,-33.58 -81.47,-33.58 -38.14,0 -69.03,12.86 -92.67,38.57 -23.63,25.7 -35.44,59.28 -35.44,100.74l0 323.39 -195.28 0 0 -870.65 195.28 0 0 323.39c47.26,-53.9 109.87,-80.85 187.8,-80.85zm-5456.44 1683.3c-71.31,0 -139.91,-10.78 -205.84,-32.34 -65.93,-21.55 -122.93,-51.83 -171.02,-90.8l105.72 -148.01c77.12,60.54 167.08,90.82 269.91,90.82 51.4,0 92.25,-8.73 122.5,-26.14 30.26,-17.42 45.4,-41.04 45.4,-70.89 0,-28.19 -14.1,-50.16 -42.28,-65.92 -28.19,-15.76 -72.98,-26.96 -134.33,-33.58 -118.58,-13.26 -205.43,-41.04 -260.57,-83.35 -55.14,-42.28 -82.71,-102.81 -82.71,-181.59 0,-53.06 14.92,-99.91 44.78,-140.55 29.83,-40.62 71.72,-72.13 125.62,-94.53 53.89,-22.37 116.09,-33.58 186.56,-33.58 60.54,0 119.61,8.72 177.24,26.15 57.63,17.39 108.41,41.85 152.36,73.37l-95.77 143.02c-67.99,-47.27 -143.03,-70.89 -225.11,-70.89 -50.58,0 -91,8.28 -121.27,24.88 -30.28,16.58 -45.4,38.97 -45.4,67.17 0,27.37 13.05,48.51 39.16,63.43 26.13,14.94 69.87,26.12 131.23,33.57 117.75,13.28 205.64,42.5 263.68,87.69 58.05,45.19 87.06,107.19 87.06,185.95 0,54.73 -15.33,103.03 -46.01,144.91 -30.68,41.86 -73.8,74.2 -129.35,97.01 -55.57,22.81 -119.41,34.2 -191.55,34.2zm778.59 -6.21c-67.99,0 -127.48,-13.49 -178.46,-40.43 -50.99,-26.95 -90.19,-64.48 -117.55,-112.57 -27.35,-48.09 -41.04,-104.07 -41.04,-167.91 0,-63.85 13.69,-119.82 41.04,-167.91 27.37,-48.1 66.56,-85.61 117.55,-112.57 50.98,-26.93 110.47,-40.42 178.46,-40.42 68,0 127.71,13.49 179.11,40.42 51.42,26.96 90.81,64.47 118.18,112.57 27.36,48.09 41.03,104.07 41.03,167.91 0,63.84 -13.67,119.81 -41.03,167.91 -27.37,48.09 -66.76,85.62 -118.18,112.57 -51.39,26.94 -111.1,40.43 -179.11,40.43zm0 -165.43c43.12,0 77.96,-14.52 104.5,-43.54 26.54,-29.03 39.79,-66.34 39.79,-111.94 0,-45.61 -13.26,-82.92 -39.79,-111.95 -26.54,-29.03 -61.37,-43.54 -104.5,-43.54 -42.28,0 -76.69,14.51 -103.23,43.54 -26.52,29.03 -39.8,66.34 -39.8,111.95 0,45.6 13.28,82.91 39.8,111.94 26.54,29.02 60.94,43.54 103.23,43.54zm450.25 -718.93l195.28 0 0 870.67 -195.28 0 0 -870.67zm958.95 256.23l0 614.44 -169.16 0 -12.43 -70.89c-23.22,27.33 -51.62,48.3 -85.2,62.8 -33.58,14.5 -70.28,21.78 -110.08,21.78 -75.45,0 -135.57,-24.89 -180.34,-74.64 -44.78,-49.76 -67.17,-118.58 -67.17,-206.47l0 -347.02 195.26 0 0 335.81c0,39.82 9.76,70.9 29.24,93.3 19.49,22.38 46.23,33.58 80.23,33.58 37.31,0 67.37,-13.06 90.17,-39.19 22.81,-26.12 34.21,-59.89 34.21,-101.37l0 -322.13 195.27 0zm587.07 590.81c-48.1,24.03 -102.41,36.06 -162.95,36.06 -67.17,0 -120.22,-18.85 -159.19,-56.58 -38.98,-37.73 -58.45,-98.49 -58.45,-182.22l0 -232.59 -104.5 0 0 -155.48 104.5 0 0 -152.98 194.02 -21.15 0 174.13 152.99 0 0 155.48 -152.99 0 0 232.59c0,24.87 6.21,43.31 18.66,55.33 12.44,12.03 29.44,18.04 50.99,18.04 24.04,0 47.67,-5.79 70.89,-17.41l46.03 146.79zm185.31 -651.76c-33.98,0 -61.56,-9.94 -82.71,-29.83 -21.13,-19.9 -31.72,-45.2 -31.72,-75.87 0,-31.51 10.79,-57.22 32.35,-77.12 21.56,-19.9 48.93,-29.87 82.08,-29.87 33.17,0 60.55,9.96 82.1,29.87 21.56,19.9 32.33,45.61 32.33,77.12 0,30.66 -10.57,55.96 -31.7,75.87 -21.16,19.89 -48.72,29.83 -82.73,29.83zm-98.26 60.95l195.28 0 0 614.44 -195.28 0 0 -614.44zm644.27 628.13c-67.99,0 -127.48,-13.49 -178.48,-40.43 -50.99,-26.95 -90.18,-64.48 -117.54,-112.57 -27.36,-48.09 -41.04,-104.07 -41.04,-167.91 0,-63.85 13.68,-119.82 41.04,-167.91 27.36,-48.1 66.55,-85.61 117.54,-112.57 50.99,-26.93 110.48,-40.42 178.48,-40.42 67.99,0 127.7,13.49 179.1,40.42 51.41,26.96 90.8,64.47 118.18,112.57 27.37,48.09 41.03,104.07 41.03,167.91 0,63.84 -13.66,119.81 -41.03,167.91 -27.37,48.09 -66.76,85.62 -118.18,112.57 -51.4,26.94 -111.11,40.43 -179.1,40.43zm0 -165.43c43.12,0 77.96,-14.52 104.49,-43.54 26.54,-29.03 39.79,-66.34 39.79,-111.94 0,-45.61 -13.25,-82.92 -39.79,-111.95 -26.54,-29.03 -61.37,-43.54 -104.49,-43.54 -42.28,0 -76.69,14.51 -103.23,43.54 -26.52,29.03 -39.8,66.34 -39.8,111.95 0,45.6 13.28,82.91 39.8,111.94 26.54,29.02 60.95,43.54 103.23,43.54zm829.6 -476.39c76.29,0 137.02,24.88 182.22,74.63 45.18,49.76 67.77,118.57 67.77,206.48l0 347.02 -195.26 0 0 -335.81c0,-39.81 -9.96,-70.92 -29.86,-93.3 -19.9,-22.38 -47.26,-33.58 -82.08,-33.58 -38.16,0 -68.83,12.84 -92.04,38.56 -23.22,25.71 -34.84,59.29 -34.84,100.75l0 323.39 -195.28 0 0 -614.44 169.16 0 12.44 72.15c24.05,-27.36 52.87,-48.51 86.45,-63.45 33.58,-14.92 70.69,-22.38 111.31,-22.38zm628.12 644.3c-108.64,0 -203.15,-27.37 -283.59,-82.11l74.63 -134.33c29.85,18.26 64.47,32.35 103.87,42.3 39.37,9.96 78.56,14.92 117.52,14.92 53.91,0 80.85,-14.5 80.85,-43.53 0,-14.92 -7.46,-26.11 -22.38,-33.58 -14.92,-7.45 -39.8,-12.43 -74.64,-14.93 -77.93,-4.15 -139.91,-23.64 -185.94,-58.45 -46.01,-34.83 -69.03,-80.43 -69.03,-136.83 0,-61.33 24.88,-110.07 74.64,-146.13 49.75,-36.07 116.91,-54.11 201.49,-54.11 48.09,0 93.9,5.81 137.44,17.42 43.53,11.61 81.06,27.78 112.56,48.5l-75.87 130.61c-46.44,-26.55 -101.57,-39.83 -165.41,-39.83 -63.02,0 -94.54,14.94 -94.54,44.78 0,12.45 6.44,21.97 19.29,28.63 12.85,6.62 34.62,11.6 65.28,14.91 87.91,6.65 154.86,26.55 200.89,59.69 46.01,33.17 69.02,79.62 69.02,139.31 0,63.02 -25.28,112.57 -75.87,148.64 -50.58,36.06 -120.65,54.11 -210.19,54.11z"/>
    <path class="fil3" d="M3646.89 4366.54l-27.72 58.92c-97.68,180.14 -220.33,317.43 -367.96,411.95l298.02 533.1 -252.86 140.59 -311.18 -556.68c-101.43,27.49 -211.24,40.61 -329.45,39.35 -286.51,-2.28 -533.72,-102.77 -741.63,-301.46 -207.91,-198.7 -313.06,-440.14 -315.37,-724.32 -4.61,-286.47 97.62,-531.96 306.69,-736.43 209.11,-204.47 459.2,-309 750.31,-313.65 207.91,-2.28 402,52.02 582.2,162.89 170.99,106.31 293.41,240.29 367.35,402.04l38.14 86.61 -298.63 0c-148.43,-256.44 -374.84,-388.13 -680.41,-395.05 -203.89,-4.61 -386.96,69.3 -548.69,222.37 -169.23,157.1 -253.56,343.67 -253.56,559.09 0,215.44 78.56,400.26 236.21,553.92 157.11,154.21 343.67,229.89 559.11,227.57 307.86,-4.61 537.75,-128.23 690.82,-370.81l298.6 0z"/>
    <polygon class="fil2" points="2375.81,3920.21 2570.35,4092.04 3108.94,3591.58 3240.37,3732.83 2573.85,4352.12 2248.16,4064.44 "/>
   </g>
  </g>
 </g>
</svg>
